<?xml version="1.0" encoding="UTF-8"?>
<svg id="Layer_1" xmlns="http://www.w3.org/2000/svg" xmlns:xlink="http://www.w3.org/1999/xlink" version="1.1" viewBox="0 0 1246.49 67.44">
  <!-- Generator: Adobe Illustrator 30.3.0, SVG Export Plug-In . SVG Version: 2.1.3 Build 182)  -->
  <defs>
    <style>
      .st0 {
        fill: #9b93a8;
      }

      .st1 {
        fill: #231f20;
      }

      .st2 {
        fill: url(#New_Gradient_Swatch_2);
      }
    </style>
    <linearGradient id="New_Gradient_Swatch_2" data-name="New Gradient Swatch 2" x1="823.58" y1="34.8" x2="1246.49" y2="34.8" gradientUnits="userSpaceOnUse">
      <stop offset="0" stop-color="#7c5fa6"/>
      <stop offset="1" stop-color="#4a9e96"/>
    </linearGradient>
  </defs>
  <path class="st0" d="M13.76,20.53c.65-.57,1.4-1.09,2.24-1.57.84-.48,1.78-.86,2.81-1.16,1.03-.29,2.14-.44,3.34-.44,2.3,0,4.2.51,5.72,1.53,1.51,1.02,2.65,2.49,3.4,4.41.75,1.92,1.13,4.25,1.13,7,0,2.48-.3,4.84-.9,7.08-.6,2.24-1.47,4.29-2.62,6.15-1.15,1.86-2.55,3.47-4.19,4.83-1.65,1.36-3.52,2.42-5.63,3.16-2.1.74-4.41,1.11-6.91,1.11-1.22,0-2.49-.14-3.81-.41-1.32-.27-2.45-.56-3.39-.87l-4.94,1.28L6.22,7.08l-3.11-1.28.61-2.47,10.89-1.16,1.59.85-2.44,17.51ZM10.16,48.16c.41.14.84.23,1.3.27s.95.06,1.48.06c1.38,0,2.6-.34,3.64-1.02,1.05-.68,1.94-1.61,2.68-2.79.74-1.18,1.35-2.55,1.81-4.1.47-1.56.81-3.21,1.04-4.97.22-1.76.34-3.53.34-5.32,0-2.07-.36-3.88-1.07-5.43-.71-1.55-1.82-2.32-3.32-2.32-.67,0-1.31.13-1.91.38-.6.25-1.15.58-1.65.99-.5.41-.95.87-1.36,1.37l-2.99,22.88Z"/>
  <path class="st0" d="M54.84,17.29c2.79,0,5.15.52,7.09,1.56,1.94,1.04,3.43,2.57,4.47,4.61s1.57,4.53,1.59,7.5c.02,2.99-.38,5.81-1.2,8.45-.82,2.64-2.04,4.97-3.65,6.98-1.61,2.01-3.57,3.59-5.9,4.74-2.33,1.15-4.98,1.72-7.95,1.72-2.7,0-5.02-.53-6.94-1.59-1.92-1.06-3.39-2.61-4.41-4.67-1.02-2.05-1.55-4.56-1.59-7.53-.02-3.01.38-5.83,1.2-8.46.82-2.63,2.03-4.95,3.63-6.94,1.6-1.99,3.54-3.55,5.84-4.68,2.3-1.13,4.9-1.69,7.81-1.69ZM53.53,21.14c-1,0-1.86.37-2.59,1.11s-1.36,1.73-1.88,2.97c-.52,1.24-.94,2.62-1.27,4.15-.33,1.52-.56,3.09-.7,4.7s-.2,3.13-.18,4.57c.02,2.77.21,4.9.56,6.41.36,1.5.83,2.55,1.42,3.13.59.58,1.24.87,1.95.87,1,0,1.86-.37,2.59-1.1.73-.73,1.36-1.72,1.88-2.96.52-1.24.94-2.63,1.25-4.16.32-1.53.54-3.11.69-4.73.14-1.62.2-3.17.18-4.65-.02-2.79-.21-4.92-.56-6.41-.36-1.48-.82-2.51-1.4-3.07-.58-.56-1.23-.84-1.94-.84Z"/>
  <path class="st0" d="M90.58,17.29c2.79,0,5.15.52,7.09,1.56,1.94,1.04,3.43,2.57,4.47,4.61s1.57,4.53,1.59,7.5c.02,2.99-.38,5.81-1.2,8.45-.82,2.64-2.04,4.97-3.65,6.98-1.61,2.01-3.57,3.59-5.9,4.74-2.33,1.15-4.98,1.72-7.95,1.72-2.7,0-5.02-.53-6.94-1.59-1.92-1.06-3.39-2.61-4.41-4.67-1.02-2.05-1.55-4.56-1.59-7.53-.02-3.01.38-5.83,1.2-8.46.82-2.63,2.03-4.95,3.63-6.94,1.6-1.99,3.54-3.55,5.84-4.68,2.3-1.13,4.9-1.69,7.81-1.69ZM89.27,21.14c-1,0-1.86.37-2.59,1.11s-1.36,1.73-1.88,2.97c-.52,1.24-.94,2.62-1.27,4.15-.33,1.52-.56,3.09-.7,4.7s-.2,3.13-.18,4.57c.02,2.77.21,4.9.56,6.41.36,1.5.83,2.55,1.42,3.13.59.58,1.24.87,1.95.87,1,0,1.86-.37,2.59-1.1.73-.73,1.36-1.72,1.88-2.96.52-1.24.94-2.63,1.25-4.16.32-1.53.54-3.11.69-4.73.14-1.62.2-3.17.18-4.65-.02-2.79-.21-4.92-.56-6.41-.36-1.48-.82-2.51-1.4-3.07-.58-.56-1.23-.84-1.94-.84Z"/>
  <path class="st0" d="M106.9,52l6.31-44.83-4.33-1.28.52-2.44,12.08-1.25,1.65.85-6.65,48.95h-9.58ZM130.91,52.55c-1.14,0-2.09-.15-2.87-.44-.77-.29-1.39-.71-1.86-1.25-.47-.54-.83-1.15-1.1-1.85l-5.79-15.19c1.02-.55,2-1.11,2.94-1.68.95-.57,1.93-1.31,2.94-2.21,1.02-.91,2.11-2.12,3.29-3.65.55-.73.95-1.5,1.21-2.32.25-.81.38-1.69.38-2.62,0-1.06.26-1.88.79-2.46.53-.58,1.17-.98,1.92-1.21.75-.22,1.45-.34,2.1-.34,1.26,0,2.22.38,2.87,1.14.65.76.98,1.65.98,2.67.02,1.08-.15,2.01-.5,2.79-.36.78-.75,1.45-1.17,2-.69.87-1.5,1.7-2.44,2.47-.94.77-1.93,1.48-2.97,2.12s-2.09,1.21-3.14,1.71c-1.05.5-2.05.93-3,1.3l1.19-3.33,6.74,13.66c.49.92,1.02,1.6,1.59,2.06.57.46,1.1.69,1.59.69.37,0,.89-.11,1.57-.33.68-.22,1.31-.56,1.88-1.01l.98,2.07c-.37.49-1.03,1.14-2,1.97-.97.82-2.14,1.57-3.52,2.23-1.38.66-2.91.99-4.58.99Z"/>
  <path class="st0" d="M168.21,45.54c-.53.87-1.4,1.87-2.61,2.99-1.21,1.12-2.73,2.09-4.58,2.93-1.84.83-4,1.25-6.48,1.25-2.34,0-4.32-.39-5.93-1.16-1.62-.77-2.92-1.82-3.92-3.13-1-1.31-1.72-2.78-2.17-4.41-.45-1.63-.68-3.28-.7-4.97-.02-3.17.44-6.09,1.39-8.75.95-2.66,2.27-4.98,3.98-6.94,1.71-1.96,3.72-3.49,6.02-4.58,2.31-1.09,4.8-1.63,7.49-1.63,2.2,0,3.99.33,5.37.99,1.38.66,2.41,1.56,3.08,2.7s1.03,2.41,1.07,3.81c.06,1.97-.29,3.7-1.05,5.18-.76,1.48-1.79,2.76-3.1,3.81-1.3,1.06-2.76,1.93-4.36,2.61-1.61.68-3.24,1.18-4.91,1.51-1.67.33-3.23.51-4.7.55,0,1.52.12,2.86.37,4,.24,1.14.6,2.09,1.08,2.85.48.76,1.06,1.34,1.74,1.72.68.39,1.45.58,2.3.58,1.54,0,2.87-.26,3.98-.79,1.11-.53,2.05-1.18,2.82-1.95.77-.77,1.42-1.5,1.95-2.2l1.86,3.02ZM158.57,21.32c-1.16,0-2.14.43-2.93,1.28-.79.85-1.44,1.96-1.94,3.33-.5,1.36-.87,2.82-1.13,4.38-.25,1.56-.41,3.04-.47,4.44.69-.04,1.45-.2,2.27-.47.82-.27,1.64-.67,2.44-1.17.8-.51,1.54-1.13,2.2-1.88.66-.74,1.18-1.6,1.56-2.56.38-.97.53-2.04.47-3.22-.06-1.36-.3-2.39-.7-3.08-.41-.69-1-1.04-1.77-1.04Z"/>
  <path class="st0" d="M201.7,45.23c-.1.73-.08,1.3.08,1.71.15.41.47.61.96.61.28,0,.63-.09,1.04-.26s.98-.53,1.71-1.08l.85,2.1c-.24.29-.71.77-1.4,1.46-.69.69-1.61,1.34-2.76,1.94-1.15.6-2.53.9-4.13.9s-2.87-.38-3.66-1.14c-.79-.76-1.28-1.85-1.46-3.28l-.06-.58c-.55.77-1.28,1.54-2.18,2.32-.91.77-2,1.41-3.28,1.92-1.28.51-2.76.76-4.42.76-2.46,0-4.44-.59-5.95-1.78-1.5-1.19-2.59-2.74-3.26-4.65-.67-1.91-1.01-3.96-1.01-6.13,0-2.3.26-4.55.78-6.77.52-2.22,1.31-4.28,2.36-6.19,1.06-1.91,2.38-3.6,3.98-5.06,1.6-1.46,3.48-2.61,5.66-3.43,2.18-.82,4.64-1.24,7.38-1.24.47,0,.97.03,1.51.09.54.06,1.07.14,1.6.24l1.4-10.55-4.61-1.28.55-2.41,12.69-1.28,1.65.85-6.01,42.21ZM195.35,21.99c-.47-.16-.97-.29-1.49-.38-.53-.09-1.09-.14-1.68-.14-1.46,0-2.73.37-3.8,1.11s-1.96,1.74-2.68,3-1.3,2.68-1.74,4.25c-.44,1.58-.75,3.21-.93,4.91-.18,1.7-.27,3.34-.27,4.93s.17,2.88.52,4.06c.35,1.18.84,2.1,1.49,2.76.65.66,1.42.99,2.32.99.69,0,1.34-.15,1.95-.44s1.17-.69,1.69-1.17c.52-.49.96-1,1.33-1.52l3.29-22.36Z"/>
  <path class="st0" d="M209.41,47.79c.02-1.63.56-2.98,1.63-4.07,1.07-1.09,2.33-1.63,3.8-1.63,1.28,0,2.31.45,3.08,1.36.77.91,1.16,2.02,1.16,3.34,0,1.65-.52,3-1.57,4.07-1.05,1.07-2.38,1.6-4.01,1.6-1.1,0-2.06-.45-2.88-1.34-.82-.89-1.23-2-1.2-3.32Z"/>
  <path class="st0" d="M224.36,52l3.84-28.7-3.17-1.77.49-2.59,9.76-1.59,1.59,1.04-.3,5.58-.15,2.23c.35-1.16.82-2.27,1.42-3.34.6-1.07,1.32-2.01,2.17-2.84.84-.82,1.79-1.47,2.84-1.95,1.05-.48,2.18-.72,3.4-.72.53,0,.97.07,1.33.21.36.14.6.27.75.4l-2.04,10.43c-.12-.16-.47-.37-1.04-.62-.57-.25-1.33-.38-2.29-.38-.61,0-1.21.03-1.8.09-.59.06-1.15.15-1.68.26-.53.11-1.01.26-1.43.46-.43.19-.79.42-1.1.69l-3.14,23.12h-9.42Z"/>
  <path class="st0" d="M274.25,45.54c-.53.87-1.4,1.87-2.61,2.99-1.21,1.12-2.73,2.09-4.58,2.93-1.84.83-4,1.25-6.48,1.25-2.34,0-4.32-.39-5.93-1.16-1.62-.77-2.92-1.82-3.92-3.13-1-1.31-1.72-2.78-2.17-4.41-.45-1.63-.68-3.28-.7-4.97-.02-3.17.44-6.09,1.39-8.75.95-2.66,2.27-4.98,3.98-6.94,1.71-1.96,3.72-3.49,6.02-4.58,2.31-1.09,4.8-1.63,7.49-1.63,2.2,0,3.99.33,5.37.99,1.38.66,2.41,1.56,3.08,2.7s1.03,2.41,1.07,3.81c.06,1.97-.29,3.7-1.05,5.18-.76,1.48-1.79,2.76-3.1,3.81-1.3,1.06-2.76,1.93-4.36,2.61-1.61.68-3.24,1.18-4.91,1.51-1.67.33-3.23.51-4.7.55,0,1.52.12,2.86.37,4,.24,1.14.6,2.09,1.08,2.85.48.76,1.06,1.34,1.74,1.72.68.39,1.45.58,2.3.58,1.54,0,2.87-.26,3.98-.79,1.11-.53,2.05-1.18,2.82-1.95.77-.77,1.42-1.5,1.95-2.2l1.86,3.02ZM264.62,21.32c-1.16,0-2.14.43-2.93,1.28-.79.85-1.44,1.96-1.94,3.33-.5,1.36-.87,2.82-1.13,4.38-.25,1.56-.41,3.04-.47,4.44.69-.04,1.45-.2,2.27-.47.82-.27,1.64-.67,2.44-1.17.8-.51,1.54-1.13,2.2-1.88.66-.74,1.18-1.6,1.56-2.56.38-.97.53-2.04.47-3.22-.06-1.36-.3-2.39-.7-3.08-.41-.69-1-1.04-1.77-1.04Z"/>
  <path class="st0" d="M292.86,24.34c.67-1.04,1.39-1.98,2.17-2.84.77-.85,1.61-1.59,2.52-2.21.9-.62,1.88-1.1,2.91-1.43,1.04-.34,2.15-.5,3.32-.5,2.32,0,4.21.67,5.69,2,1.47,1.33,2.21,3.68,2.21,7.03,0,.59-.09,1.51-.26,2.78-.17,1.26-.37,2.6-.59,4.01-.22,1.41-.43,2.67-.61,3.77-.16,1.02-.35,2.07-.55,3.17-.2,1.1-.38,2.15-.52,3.16-.14,1.01-.21,1.88-.21,2.61s.12,1.2.37,1.39c.24.19.5.29.76.29.35,0,.71-.1,1.1-.29.39-.19.92-.54,1.62-1.05l.82,2.1c-.2.3-.67.8-1.4,1.49-.73.69-1.72,1.33-2.96,1.92-1.24.59-2.75.88-4.51.88s-3.01-.26-3.86-.78-1.4-1.16-1.68-1.94c-.27-.77-.41-1.54-.41-2.29,0-.45.05-1,.14-1.65.09-.65.21-1.37.37-2.17s.31-1.62.47-2.47c.16-.85.31-1.69.46-2.5.14-.81.29-1.7.46-2.67.16-.97.31-1.96.44-2.97.13-1.02.24-2.02.34-3s.13-1.92.11-2.79c-.02-1.12-.12-1.98-.29-2.58s-.44-1.02-.79-1.25c-.36-.23-.81-.35-1.36-.35-.59,0-1.2.19-1.83.58-.63.39-1.25.92-1.86,1.59-.61.67-1.2,1.44-1.77,2.32-.57.88-1.09,1.81-1.56,2.81l-2.96,21.5h-9.46l3.84-28.7-3.17-1.77.49-2.59,11.01-1.59,1.52.73-.52,6.25Z"/>
  <path class="st0" d="M328.61,40.44c-.08.65-.16,1.22-.23,1.71s-.13.93-.18,1.31c-.05.39-.08.75-.08,1.1,0,.81.18,1.42.55,1.83.37.41.92.61,1.65.61.79,0,1.54-.13,2.26-.4.71-.26,1.44-.71,2.2-1.34l.73,2.38c-.57.65-1.35,1.36-2.33,2.13-.99.77-2.23,1.44-3.72,2-1.49.56-3.31.84-5.44.84-1.48,0-2.81-.39-3.98-1.16-1.17-.77-1.75-2.18-1.75-4.21,0-.1,0-.25.02-.46,0-.2.05-.54.11-1.01s.14-1.14.24-2.01c.1-.87.24-2.03.43-3.48l2.17-17.35h-4.12l.7-3.26,4.21-1.4c.59-.49,1.17-1.21,1.75-2.17s1.13-1.99,1.65-3.11c.52-1.12.98-2.17,1.39-3.14h5.98l-1.34,8.3h6.28l-.67,4.79h-6.28l-2.17,17.51Z"/>
  <path class="st0" d="M366.46,45.29c-.1.81-.05,1.39.17,1.74.21.35.54.52.99.52.28,0,.64-.09,1.07-.27.43-.18.99-.54,1.68-1.07l.85,2.1c-.22.35-.72.86-1.49,1.56-.77.69-1.76,1.32-2.96,1.89-1.2.57-2.57.85-4.12.85-1.28,0-2.36-.3-3.23-.9-.87-.6-1.37-1.49-1.49-2.67l.03-.37c-.63.67-1.39,1.31-2.29,1.91-.9.6-1.91,1.09-3.03,1.46s-2.38.56-3.77.56c-2.46,0-4.47-.57-6.02-1.71-1.56-1.14-2.69-2.65-3.42-4.54-.72-1.89-1.08-3.94-1.08-6.16,0-2.34.29-4.62.88-6.85.59-2.23,1.45-4.31,2.59-6.24s2.54-3.63,4.19-5.09,3.55-2.61,5.69-3.43c2.13-.82,4.48-1.24,7.05-1.24,1.18,0,2.43.14,3.75.41,1.32.27,2.42.56,3.29.87l4.54-1.28-3.87,27.94ZM360.17,21.69c-.35-.08-.7-.14-1.05-.17-.36-.03-.71-.05-1.05-.05-1.4,0-2.63.37-3.69,1.11s-1.96,1.74-2.71,3c-.75,1.26-1.36,2.69-1.83,4.29-.47,1.6-.81,3.25-1.02,4.96s-.32,3.38-.32,5,.18,2.95.55,4.1c.37,1.15.88,2.03,1.56,2.64.67.61,1.46.92,2.38.92.37,0,.72-.05,1.07-.14s.68-.22,1.01-.38c.32-.16.64-.36.95-.58.31-.22.6-.47.88-.73l3.29-23.97Z"/>
  <path class="st0" d="M384.57,45.29c-.1.69-.07,1.24.11,1.65.17.41.5.61.99.61.31,0,.64-.08,1.01-.24.37-.16.95-.54,1.74-1.13l.79,2.1c-.22.3-.69.8-1.39,1.49-.7.69-1.68,1.34-2.94,1.94s-2.84.9-4.73.9c-.79,0-1.61-.13-2.46-.4-.84-.26-1.55-.69-2.12-1.28-.57-.59-.85-1.37-.85-2.35,0-.24.02-.51.05-.81.03-.29.07-.58.11-.85.04-.27.07-.48.09-.62l5.76-39.19-3.96-1.22.61-2.44,11.77-1.28,1.52.85-6.1,42.27Z"/>
  <path class="st0" d="M415.04,24.55h-.31c-.41-.55-1.11-1.18-2.1-1.89-1-.71-2.22-1.07-3.66-1.07-.85,0-1.65.13-2.38.4s-1.32.66-1.77,1.17-.67,1.18-.67,2,.19,1.54.58,2.23c.39.69.98,1.38,1.77,2.07s1.78,1.46,2.96,2.32c1.14.81,2.17,1.66,3.08,2.55.91.88,1.64,1.92,2.18,3.1.54,1.18.81,2.6.81,4.27,0,1.85-.39,3.46-1.16,4.82-.77,1.36-1.83,2.5-3.16,3.4-1.33.9-2.85,1.58-4.54,2.03-1.7.45-3.48.67-5.35.67-1.28,0-2.58-.11-3.9-.34s-2.5-.49-3.52-.81c-1.03-.31-1.73-.62-2.12-.93l1.46-5.92h.09c.41.41,1.02.88,1.85,1.42.82.54,1.76,1.01,2.81,1.42,1.05.41,2.11.61,3.19.61.73,0,1.46-.13,2.2-.4.73-.26,1.34-.68,1.83-1.25.49-.57.73-1.31.73-2.23,0-.81-.22-1.57-.67-2.27-.45-.7-1.07-1.4-1.88-2.1-.8-.7-1.76-1.43-2.88-2.18-.94-.65-1.85-1.42-2.75-2.32-.89-.89-1.63-1.97-2.21-3.23s-.87-2.77-.87-4.51c0-2.01.58-3.79,1.74-5.32,1.16-1.54,2.78-2.73,4.86-3.6,2.08-.86,4.51-1.3,7.27-1.3,1.1,0,2.18.06,3.25.18s2,.27,2.81.44c.8.17,1.37.33,1.69.47l-1.25,6.1Z"/>
  <path class="st0" d="M447.92,18.09l-.52,6.31c.61-1,1.35-1.92,2.21-2.78.86-.85,1.8-1.6,2.82-2.24,1.02-.64,2.08-1.14,3.2-1.49,1.12-.36,2.26-.53,3.42-.53,1.42,0,2.63.26,3.63.78,1,.52,1.78,1.38,2.35,2.58.57,1.2.92,2.83,1.04,4.88.02.35.03.71.03,1.08s-.02.77-.05,1.17c-.03.41-.07.82-.11,1.25l-1.31-2.07c.63-1.61,1.38-3.01,2.26-4.21.87-1.2,1.87-2.21,2.97-3.02,1.11-.81,2.32-1.42,3.65-1.83,1.32-.41,2.74-.61,4.27-.61,2.28,0,4.16.67,5.64,2,1.48,1.33,2.23,3.68,2.23,7.03,0,.59-.08,1.51-.24,2.78-.16,1.26-.36,2.6-.58,4.01-.22,1.41-.44,2.67-.64,3.77-.18,1.02-.37,2.07-.56,3.17-.19,1.1-.36,2.15-.5,3.16-.14,1.01-.21,1.88-.21,2.61s.12,1.2.35,1.39c.23.19.5.29.81.29.35,0,.71-.1,1.08-.29.38-.19.91-.55,1.6-1.08l.85,2.1c-.22.3-.7.8-1.42,1.49s-1.7,1.34-2.94,1.94c-1.24.6-2.75.9-4.51.9s-3.05-.26-3.9-.78-1.41-1.16-1.66-1.94c-.25-.77-.38-1.54-.38-2.29,0-.59.08-1.36.23-2.32.15-.96.34-2,.56-3.13.22-1.13.43-2.25.61-3.37.18-1.08.38-2.28.59-3.61s.4-2.67.55-4.03c.15-1.35.22-2.61.2-3.77-.02-1.67-.22-2.78-.61-3.34-.39-.56-.99-.84-1.8-.84-.75,0-1.54.21-2.36.62-.82.42-1.63,1.02-2.41,1.82-.78.79-1.49,1.75-2.14,2.87-.64,1.12-1.15,2.38-1.54,3.78l1.43-5.4c0,.94-.04,1.99-.11,3.16s-.16,2.35-.27,3.54c-.11,1.19-.24,2.3-.38,3.34l-1.77,15.07h-9.58l1.71-13.18c.14-1.12.29-2.33.44-3.63.15-1.3.28-2.61.38-3.93.1-1.32.14-2.55.12-3.69-.06-1.87-.32-3.07-.76-3.58s-1.15-.78-2.1-.78c-.53,0-1.1.17-1.72.52-.62.35-1.26.83-1.91,1.45-.65.62-1.28,1.34-1.88,2.15-.6.81-1.13,1.68-1.6,2.59l-3.02,22.08h-9.49l3.9-28.7-3.17-1.77.49-2.59,10.95-1.59,1.59.73Z"/>
  <path class="st0" d="M517.03,45.54c-.53.87-1.4,1.87-2.61,2.99-1.21,1.12-2.73,2.09-4.58,2.93-1.84.83-4,1.25-6.48,1.25-2.34,0-4.32-.39-5.93-1.16-1.62-.77-2.92-1.82-3.92-3.13-1-1.31-1.72-2.78-2.17-4.41-.45-1.63-.68-3.28-.7-4.97-.02-3.17.44-6.09,1.39-8.75.95-2.66,2.27-4.98,3.98-6.94,1.71-1.96,3.72-3.49,6.02-4.58,2.31-1.09,4.8-1.63,7.49-1.63,2.2,0,3.99.33,5.37.99,1.38.66,2.41,1.56,3.08,2.7s1.03,2.41,1.07,3.81c.06,1.97-.29,3.7-1.05,5.18-.76,1.48-1.79,2.76-3.1,3.81-1.3,1.06-2.76,1.93-4.36,2.61-1.61.68-3.24,1.18-4.91,1.51-1.67.33-3.23.51-4.7.55,0,1.52.12,2.86.37,4,.24,1.14.6,2.09,1.08,2.85.48.76,1.06,1.34,1.74,1.72.68.39,1.45.58,2.3.58,1.54,0,2.87-.26,3.98-.79,1.11-.53,2.05-1.18,2.82-1.95.77-.77,1.42-1.5,1.95-2.2l1.86,3.02ZM507.39,21.32c-1.16,0-2.14.43-2.93,1.28-.79.85-1.44,1.96-1.94,3.33-.5,1.36-.87,2.82-1.13,4.38-.25,1.56-.41,3.04-.47,4.44.69-.04,1.45-.2,2.27-.47.82-.27,1.64-.67,2.44-1.17.8-.51,1.54-1.13,2.2-1.88.66-.74,1.18-1.6,1.56-2.56.38-.97.53-2.04.47-3.22-.06-1.36-.3-2.39-.7-3.08-.41-.69-1-1.04-1.77-1.04Z"/>
  <path class="st0" d="M549.6,45.29c-.1.81-.05,1.39.17,1.74.21.35.54.52.99.52.28,0,.64-.09,1.07-.27.43-.18.99-.54,1.68-1.07l.85,2.1c-.22.35-.72.86-1.49,1.56-.77.69-1.76,1.32-2.96,1.89-1.2.57-2.57.85-4.12.85-1.28,0-2.36-.3-3.23-.9-.87-.6-1.37-1.49-1.49-2.67l.03-.37c-.63.67-1.39,1.31-2.29,1.91-.9.6-1.91,1.09-3.03,1.46s-2.38.56-3.77.56c-2.46,0-4.47-.57-6.02-1.71-1.56-1.14-2.69-2.65-3.42-4.54-.72-1.89-1.08-3.94-1.08-6.16,0-2.34.29-4.62.88-6.85.59-2.23,1.45-4.31,2.59-6.24s2.54-3.63,4.19-5.09,3.55-2.61,5.69-3.43c2.13-.82,4.48-1.24,7.05-1.24,1.18,0,2.43.14,3.75.41,1.32.27,2.42.56,3.29.87l4.54-1.28-3.87,27.94ZM543.32,21.69c-.35-.08-.7-.14-1.05-.17-.36-.03-.71-.05-1.05-.05-1.4,0-2.63.37-3.69,1.11s-1.96,1.74-2.71,3c-.75,1.26-1.36,2.69-1.83,4.29-.47,1.6-.81,3.25-1.02,4.96s-.32,3.38-.32,5,.18,2.95.55,4.1c.37,1.15.88,2.03,1.56,2.64.67.61,1.46.92,2.38.92.37,0,.72-.05,1.07-.14s.68-.22,1.01-.38c.32-.16.64-.36.95-.58.31-.22.6-.47.88-.73l3.29-23.97Z"/>
  <path class="st0" d="M571.53,24.34c.67-1.04,1.39-1.98,2.17-2.84.77-.85,1.61-1.59,2.52-2.21.9-.62,1.88-1.1,2.91-1.43,1.04-.34,2.15-.5,3.32-.5,2.32,0,4.21.67,5.69,2,1.47,1.33,2.21,3.68,2.21,7.03,0,.59-.09,1.51-.26,2.78s-.37,2.6-.59,4.01c-.22,1.41-.43,2.67-.61,3.77-.16,1.02-.35,2.07-.55,3.17-.2,1.1-.38,2.15-.52,3.16-.14,1.01-.21,1.88-.21,2.61s.12,1.2.37,1.39c.24.19.5.29.76.29.34,0,.71-.1,1.1-.29.39-.19.92-.54,1.62-1.05l.82,2.1c-.2.3-.67.8-1.4,1.49-.73.69-1.72,1.33-2.96,1.92s-2.75.88-4.51.88-3.01-.26-3.86-.78-1.4-1.16-1.68-1.94c-.27-.77-.41-1.54-.41-2.29,0-.45.05-1,.14-1.65.09-.65.21-1.37.37-2.17s.31-1.62.47-2.47c.16-.85.31-1.69.46-2.5.14-.81.29-1.7.46-2.67.16-.97.31-1.96.44-2.97.13-1.02.24-2.02.34-3s.13-1.92.11-2.79c-.02-1.12-.12-1.98-.29-2.58s-.44-1.02-.79-1.25c-.36-.23-.81-.35-1.36-.35-.59,0-1.2.19-1.83.58-.63.39-1.25.92-1.86,1.59-.61.67-1.2,1.44-1.77,2.32-.57.88-1.09,1.81-1.56,2.81l-2.96,21.5h-9.46l3.84-28.7-3.17-1.77.49-2.59,11.01-1.59,1.52.73-.52,6.25Z"/>
  <path class="st0" d="M617.95,24.55h-.31c-.41-.55-1.11-1.18-2.1-1.89s-2.22-1.07-3.66-1.07c-.85,0-1.65.13-2.38.4-.73.26-1.32.66-1.77,1.17s-.67,1.18-.67,2,.19,1.54.58,2.23c.39.69.98,1.38,1.77,2.07s1.78,1.46,2.96,2.32c1.14.81,2.17,1.66,3.08,2.55s1.64,1.92,2.18,3.1c.54,1.18.81,2.6.81,4.27,0,1.85-.39,3.46-1.16,4.82-.77,1.36-1.83,2.5-3.16,3.4-1.33.9-2.85,1.58-4.54,2.03-1.7.45-3.48.67-5.35.67-1.28,0-2.58-.11-3.9-.34-1.32-.22-2.5-.49-3.52-.81-1.03-.31-1.73-.62-2.12-.93l1.46-5.92h.09c.41.41,1.02.88,1.84,1.42.82.54,1.76,1.01,2.81,1.42,1.05.41,2.11.61,3.19.61.73,0,1.46-.13,2.2-.4.73-.26,1.34-.68,1.83-1.25s.73-1.31.73-2.23c0-.81-.22-1.57-.67-2.27-.45-.7-1.07-1.4-1.88-2.1-.8-.7-1.76-1.43-2.88-2.18-.94-.65-1.85-1.42-2.75-2.32-.89-.89-1.63-1.97-2.21-3.23s-.87-2.77-.87-4.51c0-2.01.58-3.79,1.74-5.32,1.16-1.54,2.78-2.73,4.87-3.6,2.08-.86,4.51-1.3,7.27-1.3,1.1,0,2.18.06,3.25.18,1.07.12,2,.27,2.81.44.8.17,1.37.33,1.69.47l-1.25,6.1Z"/>
  <path class="st0" d="M638.26,24.34c-.14-.63-.32-1.07-.52-1.31-.2-.24-.46-.37-.76-.37-.26,0-.52.04-.76.11-.24.07-.5.19-.76.35l-.88-2.29c.2-.24.67-.65,1.39-1.21.72-.56,1.64-1.08,2.75-1.56,1.11-.48,2.31-.72,3.61-.72,1.2,0,2.19.16,2.96.47s1.37.78,1.8,1.39c.43.61.71,1.35.85,2.23.3,1.97.61,3.93.93,5.89s.62,3.9.93,5.84c.3,1.94.61,3.88.92,5.83.3,1.94.61,3.89.92,5.84l.85,5.95,1.92-4.09c.71-1.48,1.36-2.96,1.94-4.44.58-1.47,1.08-2.92,1.49-4.35s.74-2.81.98-4.16c.23-1.35.35-2.65.35-3.89,0-1.38-.13-2.47-.4-3.25-.26-.78-.53-1.53-.81-2.26-.27-.72-.41-1.68-.41-2.88s.39-2.13,1.17-2.93c.78-.79,1.95-1.19,3.49-1.19,1.2,0,2.2.31,2.99.92.79.61,1.39,1.39,1.78,2.33.4.95.59,1.91.59,2.88,0,2.13-.2,4.1-.61,5.89-.41,1.79-.97,3.54-1.69,5.25s-1.55,3.53-2.49,5.46c-.47,1.04-1.06,2.22-1.77,3.55s-1.48,2.72-2.32,4.16c-.83,1.44-1.67,2.86-2.5,4.25s-1.62,2.68-2.35,3.87c-.73,1.19-1.35,2.19-1.86,3-1.38,2.26-2.76,4-4.13,5.23-1.37,1.23-2.78,2.08-4.22,2.56-1.44.48-3,.72-4.67.72-1.2,0-2.44-.15-3.72-.44-1.28-.3-2.1-.59-2.47-.9l2.29-5.98c.45.45,1.23.85,2.35,1.22,1.12.37,2.17.55,3.17.55,1.26,0,2.43-.26,3.52-.79,1.09-.53,2.16-1.36,3.22-2.5,1.06-1.14,2.16-2.62,3.29-4.45h-5.4l-6.95-29.8Z"/>
  <path class="st0" d="M688.8,17.29c2.79,0,5.15.52,7.09,1.56,1.94,1.04,3.43,2.57,4.47,4.61,1.04,2.03,1.57,4.53,1.59,7.5.02,2.99-.38,5.81-1.21,8.45-.82,2.64-2.04,4.97-3.64,6.98-1.61,2.01-3.57,3.59-5.9,4.74s-4.98,1.72-7.95,1.72c-2.7,0-5.02-.53-6.94-1.59-1.92-1.06-3.39-2.61-4.41-4.67s-1.55-4.56-1.59-7.53c-.02-3.01.38-5.83,1.21-8.46.82-2.63,2.03-4.95,3.63-6.94,1.6-1.99,3.54-3.55,5.84-4.68,2.3-1.13,4.9-1.69,7.81-1.69ZM687.49,21.14c-1,0-1.86.37-2.59,1.11-.73.74-1.36,1.73-1.88,2.97-.52,1.24-.94,2.62-1.27,4.15-.33,1.52-.56,3.09-.7,4.7-.14,1.61-.2,3.13-.18,4.57.02,2.77.21,4.9.56,6.41s.83,2.55,1.42,3.13c.59.58,1.24.87,1.95.87,1,0,1.86-.37,2.59-1.1s1.36-1.72,1.88-2.96.93-2.63,1.25-4.16c.32-1.53.54-3.11.69-4.73.14-1.62.2-3.17.18-4.65-.02-2.79-.21-4.92-.56-6.41-.36-1.48-.82-2.51-1.4-3.07-.58-.56-1.23-.84-1.94-.84Z"/>
  <path class="st0" d="M715.13,52.61c-1.22,0-2.49-.24-3.81-.72-1.32-.48-2.45-1.27-3.39-2.38-.94-1.11-1.42-2.62-1.46-4.53,0-.71.04-1.5.11-2.35.07-.85.17-1.75.29-2.7s.25-1.91.4-2.88c.14-.98.28-1.93.43-2.87l1.65-10.92-3.78-2.32.49-2.62,11.83-.98,1.52.73-2.01,16.35c-.1.88-.22,1.76-.35,2.65-.13.89-.25,1.75-.37,2.58-.11.82-.2,1.57-.27,2.24s-.11,1.23-.11,1.68c0,.98.1,1.76.3,2.36.2.6.51,1.04.93,1.31.42.28.96.41,1.63.41.79,0,1.55-.14,2.27-.43s1.39-.67,2-1.14c.61-.48,1.16-.99,1.65-1.54l3.66-26.96h9.58l-3.84,27.69c-.1.79-.04,1.37.2,1.72.23.36.57.53,1.02.53.35,0,.69-.09,1.04-.26s.89-.53,1.65-1.08l.85,2.07c-.2.35-.66.86-1.37,1.56-.71.69-1.65,1.33-2.82,1.91-1.17.58-2.54.87-4.1.87-1.65,0-2.9-.29-3.75-.85-.85-.57-1.39-1.34-1.62-2.32-.02-.12-.04-.25-.06-.4-.02-.14-.03-.29-.03-.44s.01-.31.03-.47c.02-.16.04-.32.06-.46l-.12-.06c-.51.59-1.08,1.18-1.72,1.77-.64.59-1.38,1.13-2.21,1.62-.83.49-1.77.88-2.82,1.17-1.05.29-2.23.44-3.55.44Z"/>
  <path class="st0" d="M744.65,23.55l-2.13-2.47v-.27c.89-.55,1.78-1.32,2.65-2.3s1.6-2.18,2.18-3.57c.58-1.39.87-2.97.87-4.74,0-1-.09-1.9-.27-2.7-.18-.8-.43-1.5-.73-2.1-.31-.6-.63-1.08-.98-1.45v-.4l6.31-3.54c.49.41,1.01,1.01,1.57,1.8.56.79,1.04,1.78,1.43,2.97s.59,2.58.59,4.16c0,2.68-.59,5-1.78,6.94s-2.67,3.54-4.44,4.8c-1.77,1.26-3.53,2.22-5.28,2.87Z"/>
  <path class="st0" d="M755.32,52l3.84-28.7-3.17-1.77.49-2.59,9.76-1.59,1.59,1.04-.31,5.58-.15,2.23c.35-1.16.82-2.27,1.42-3.34s1.32-2.01,2.17-2.84c.84-.82,1.79-1.47,2.84-1.95,1.05-.48,2.18-.72,3.4-.72.53,0,.97.07,1.33.21.36.14.61.27.75.4l-2.04,10.43c-.12-.16-.47-.37-1.04-.62-.57-.25-1.33-.38-2.29-.38-.61,0-1.21.03-1.8.09-.59.06-1.15.15-1.68.26-.53.11-1.01.26-1.43.46-.43.19-.79.42-1.1.69l-3.14,23.12h-9.42Z"/>
  <path class="st0" d="M805.22,45.54c-.53.87-1.4,1.87-2.61,2.99-1.21,1.12-2.74,2.09-4.58,2.93-1.84.83-4,1.25-6.48,1.25-2.34,0-4.32-.39-5.93-1.16-1.62-.77-2.92-1.82-3.92-3.13s-1.72-2.78-2.17-4.41c-.45-1.63-.68-3.28-.7-4.97-.02-3.17.44-6.09,1.39-8.75.95-2.66,2.27-4.98,3.98-6.94,1.71-1.96,3.72-3.49,6.02-4.58,2.31-1.09,4.8-1.63,7.49-1.63,2.2,0,3.99.33,5.37.99s2.41,1.56,3.08,2.7c.67,1.14,1.03,2.41,1.07,3.81.06,1.97-.29,3.7-1.05,5.18-.76,1.48-1.79,2.76-3.1,3.81-1.3,1.06-2.76,1.93-4.36,2.61-1.61.68-3.24,1.18-4.91,1.51-1.67.33-3.23.51-4.7.55,0,1.52.12,2.86.37,4,.24,1.14.6,2.09,1.08,2.85.48.76,1.06,1.34,1.74,1.72.68.39,1.45.58,2.3.58,1.54,0,2.87-.26,3.98-.79,1.11-.53,2.05-1.18,2.82-1.95s1.42-1.5,1.95-2.2l1.86,3.02ZM795.58,21.32c-1.16,0-2.13.43-2.93,1.28-.79.85-1.44,1.96-1.94,3.33s-.87,2.82-1.13,4.38c-.25,1.56-.41,3.04-.47,4.44.69-.04,1.45-.2,2.27-.47.82-.27,1.64-.67,2.44-1.17.8-.51,1.54-1.13,2.2-1.88.66-.74,1.18-1.6,1.56-2.56.38-.97.53-2.04.47-3.22-.06-1.36-.29-2.39-.7-3.08-.41-.69-1-1.04-1.77-1.04Z"/>
  <g>
    <g>
      <path class="st1" d="M851.7,45.29c-.1.81-.05,1.39.17,1.74.21.35.54.52.99.52.29,0,.64-.09,1.07-.27.43-.18.99-.54,1.68-1.07l.85,2.1c-.22.35-.72.86-1.5,1.56s-1.76,1.32-2.96,1.89c-1.2.57-2.57.85-4.12.85-1.28,0-2.36-.3-3.23-.9s-1.37-1.49-1.49-2.67l.03-.37c-.63.67-1.39,1.31-2.29,1.91s-1.91,1.09-3.03,1.46c-1.13.38-2.38.56-3.77.56-2.46,0-4.47-.57-6.02-1.71-1.55-1.14-2.69-2.65-3.42-4.54s-1.08-3.94-1.08-6.16c0-2.34.29-4.62.88-6.85s1.45-4.31,2.59-6.24,2.54-3.63,4.19-5.09c1.66-1.46,3.55-2.61,5.69-3.43,2.14-.82,4.48-1.24,7.05-1.24,1.18,0,2.43.14,3.75.41,1.32.27,2.42.56,3.29.87l4.54-1.28-3.87,27.94ZM845.42,21.69c-.35-.08-.7-.14-1.05-.17-.36-.03-.71-.05-1.05-.05-1.4,0-2.63.37-3.69,1.11-1.06.74-1.96,1.74-2.71,3s-1.36,2.69-1.83,4.29c-.47,1.6-.81,3.25-1.02,4.96s-.32,3.38-.32,5,.18,2.95.55,4.1c.37,1.15.88,2.03,1.56,2.64.67.61,1.46.92,2.38.92.37,0,.72-.05,1.07-.14s.68-.22,1.01-.38.64-.36.95-.58c.3-.22.6-.47.88-.73l3.29-23.97Z"/>
      <path class="st1" d="M869.82,45.29c-.1.69-.07,1.24.11,1.65.17.41.5.61.99.61.3,0,.64-.08,1.01-.24.37-.16.95-.54,1.74-1.13l.79,2.1c-.22.3-.69.8-1.39,1.49-.7.69-1.68,1.34-2.94,1.94-1.26.6-2.84.9-4.73.9-.79,0-1.61-.13-2.46-.4-.84-.26-1.55-.69-2.12-1.28-.57-.59-.85-1.37-.85-2.35,0-.24.02-.51.05-.81.03-.29.07-.58.11-.85s.07-.48.09-.62l5.76-39.19-3.96-1.22.61-2.44,11.77-1.28,1.53.85-6.1,42.27Z"/>
      <path class="st1" d="M885.92,52.61l-2.41-11.13-3.6-17.14c-.14-.63-.32-1.07-.52-1.31-.2-.24-.46-.37-.76-.37-.37,0-.64.05-.82.14-.18.09-.41.2-.67.32l-.88-2.29c.18-.24.63-.65,1.36-1.21.72-.56,1.64-1.08,2.75-1.56,1.11-.48,2.31-.72,3.61-.72,1.79,0,3.12.35,4,1.05s1.41,1.71,1.62,3.04l2.17,17.63.7,6.28,2.62-8.36,5.49-18.85h9.39l2.75,21.99.58,5.73,1.65-2.9c.73-1.38,1.36-2.72,1.89-4.01.53-1.29.96-2.55,1.31-3.78.34-1.23.6-2.46.76-3.68s.24-2.45.24-3.69c0-.67-.08-1.36-.24-2.06s-.33-1.41-.49-2.13c-.16-.72-.24-1.43-.24-2.12,0-1.18.43-2.2,1.28-3.05s2.02-1.28,3.51-1.28c1.3,0,2.33.31,3.1.93s1.31,1.42,1.63,2.41.5,2.03.52,3.13c.04,1.42-.22,3.02-.79,4.79-.57,1.77-1.36,3.64-2.38,5.61-1.02,1.97-2.2,4-3.55,6.07-1.35,2.07-2.82,4.14-4.39,6.19-1.58,2.05-3.2,4.04-4.86,5.95l-6.71.3-2.38-20.34-.52-5.73-1.74,5.73-6.47,19.92-8.48.49Z"/>
      <path class="st1" d="M957.81,45.29c-.1.81-.05,1.39.17,1.74.21.35.54.52.99.52.29,0,.64-.09,1.07-.27.43-.18.99-.54,1.68-1.07l.85,2.1c-.22.35-.72.86-1.5,1.56s-1.76,1.32-2.96,1.89c-1.2.57-2.57.85-4.12.85-1.28,0-2.36-.3-3.23-.9s-1.37-1.49-1.49-2.67l.03-.37c-.63.67-1.39,1.31-2.29,1.91s-1.91,1.09-3.03,1.46c-1.13.38-2.38.56-3.77.56-2.46,0-4.47-.57-6.02-1.71-1.55-1.14-2.69-2.65-3.42-4.54s-1.08-3.94-1.08-6.16c0-2.34.29-4.62.88-6.85s1.45-4.31,2.59-6.24,2.54-3.63,4.19-5.09c1.66-1.46,3.55-2.61,5.69-3.43,2.14-.82,4.48-1.24,7.05-1.24,1.18,0,2.43.14,3.75.41,1.32.27,2.42.56,3.29.87l4.54-1.28-3.87,27.94ZM951.53,21.69c-.35-.08-.7-.14-1.05-.17-.36-.03-.71-.05-1.05-.05-1.4,0-2.63.37-3.69,1.11-1.06.74-1.96,1.74-2.71,3s-1.36,2.69-1.83,4.29c-.47,1.6-.81,3.25-1.02,4.96s-.32,3.38-.32,5,.18,2.95.55,4.1c.37,1.15.88,2.03,1.56,2.64.67.61,1.46.92,2.38.92.37,0,.72-.05,1.07-.14s.68-.22,1.01-.38.64-.36.95-.58c.3-.22.6-.47.88-.73l3.29-23.97Z"/>
      <path class="st1" d="M967.63,24.34c-.14-.63-.32-1.07-.52-1.31-.2-.24-.46-.37-.76-.37-.26,0-.52.04-.76.11-.24.07-.5.19-.76.35l-.88-2.29c.2-.24.67-.65,1.39-1.21.72-.56,1.64-1.08,2.75-1.56,1.11-.48,2.31-.72,3.61-.72,1.2,0,2.19.16,2.96.47s1.37.78,1.8,1.39c.43.61.71,1.35.85,2.23.3,1.97.61,3.93.93,5.89s.62,3.9.93,5.84c.3,1.94.61,3.88.92,5.83.3,1.94.61,3.89.92,5.84l.85,5.95,1.92-4.09c.71-1.48,1.36-2.96,1.94-4.44.58-1.47,1.08-2.92,1.49-4.35s.74-2.81.98-4.16c.23-1.35.35-2.65.35-3.89,0-1.38-.13-2.47-.4-3.25-.26-.78-.53-1.53-.81-2.26-.27-.72-.41-1.68-.41-2.88s.39-2.13,1.17-2.93c.78-.79,1.95-1.19,3.49-1.19,1.2,0,2.2.31,2.99.92.79.61,1.39,1.39,1.78,2.33.4.95.59,1.91.59,2.88,0,2.13-.2,4.1-.61,5.89-.41,1.79-.97,3.54-1.69,5.25s-1.55,3.53-2.49,5.46c-.47,1.04-1.06,2.22-1.77,3.55s-1.48,2.72-2.32,4.16c-.83,1.44-1.67,2.86-2.5,4.25s-1.62,2.68-2.35,3.87c-.73,1.19-1.35,2.19-1.86,3-1.38,2.26-2.76,4-4.13,5.23-1.37,1.23-2.78,2.08-4.22,2.56-1.44.48-3,.72-4.67.72-1.2,0-2.44-.15-3.72-.44-1.28-.3-2.1-.59-2.47-.9l2.29-5.98c.45.45,1.23.85,2.35,1.22,1.12.37,2.17.55,3.17.55,1.26,0,2.43-.26,3.52-.79,1.09-.53,2.16-1.36,3.22-2.5,1.06-1.14,2.16-2.62,3.29-4.45h-5.4l-6.95-29.8Z"/>
      <path class="st1" d="M1021.43,24.55h-.31c-.41-.55-1.11-1.18-2.1-1.89s-2.22-1.07-3.66-1.07c-.85,0-1.65.13-2.38.4-.73.26-1.32.66-1.77,1.17s-.67,1.18-.67,2,.19,1.54.58,2.23c.39.69.98,1.38,1.77,2.07s1.78,1.46,2.96,2.32c1.14.81,2.17,1.66,3.08,2.55s1.64,1.92,2.18,3.1c.54,1.18.81,2.6.81,4.27,0,1.85-.39,3.46-1.16,4.82-.77,1.36-1.83,2.5-3.16,3.4-1.33.9-2.85,1.58-4.54,2.03-1.7.45-3.48.67-5.35.67-1.28,0-2.58-.11-3.9-.34-1.32-.22-2.5-.49-3.52-.81-1.03-.31-1.73-.62-2.12-.93l1.46-5.92h.09c.41.41,1.02.88,1.84,1.42.82.54,1.76,1.01,2.81,1.42,1.05.41,2.11.61,3.19.61.73,0,1.46-.13,2.2-.4.73-.26,1.34-.68,1.83-1.25s.73-1.31.73-2.23c0-.81-.22-1.57-.67-2.27-.45-.7-1.07-1.4-1.88-2.1-.8-.7-1.76-1.43-2.88-2.18-.94-.65-1.85-1.42-2.75-2.32-.89-.89-1.63-1.97-2.21-3.23s-.87-2.77-.87-4.51c0-2.01.58-3.79,1.74-5.32,1.16-1.54,2.78-2.73,4.87-3.6,2.08-.86,4.51-1.3,7.27-1.3,1.1,0,2.18.06,3.25.18,1.07.12,2,.27,2.81.44.8.17,1.37.33,1.69.47l-1.25,6.1Z"/>
      <path class="st1" d="M1052.54,20.53c.65-.57,1.4-1.09,2.24-1.57.84-.48,1.78-.86,2.81-1.16,1.03-.29,2.14-.44,3.34-.44,2.3,0,4.2.51,5.72,1.53s2.65,2.49,3.4,4.41,1.13,4.25,1.13,7c0,2.48-.3,4.84-.9,7.08-.6,2.24-1.47,4.29-2.62,6.15-1.15,1.86-2.55,3.47-4.19,4.83-1.65,1.36-3.52,2.42-5.63,3.16-2.1.74-4.41,1.11-6.91,1.11-1.22,0-2.49-.14-3.81-.41-1.32-.27-2.45-.56-3.39-.87l-4.94,1.28,6.22-45.54-3.11-1.28.61-2.47,10.89-1.16,1.59.85-2.44,17.51ZM1048.94,48.16c.41.14.84.23,1.3.27.46.04.95.06,1.48.06,1.38,0,2.6-.34,3.64-1.02,1.05-.68,1.94-1.61,2.68-2.79.74-1.18,1.35-2.55,1.81-4.1.47-1.56.81-3.21,1.04-4.97.22-1.76.33-3.53.33-5.32,0-2.07-.36-3.88-1.07-5.43-.71-1.55-1.82-2.32-3.32-2.32-.67,0-1.31.13-1.91.38-.6.25-1.15.58-1.65.99-.5.41-.95.87-1.36,1.37l-2.99,22.88Z"/>
      <path class="st1" d="M1093.62,17.29c2.79,0,5.15.52,7.09,1.56,1.94,1.04,3.43,2.57,4.47,4.61,1.04,2.03,1.57,4.53,1.59,7.5.02,2.99-.38,5.81-1.21,8.45-.82,2.64-2.04,4.97-3.64,6.98-1.61,2.01-3.57,3.59-5.9,4.74s-4.98,1.72-7.95,1.72c-2.7,0-5.02-.53-6.94-1.59-1.92-1.06-3.39-2.61-4.41-4.67s-1.55-4.56-1.59-7.53c-.02-3.01.38-5.83,1.21-8.46.82-2.63,2.03-4.95,3.63-6.94,1.6-1.99,3.54-3.55,5.84-4.68,2.3-1.13,4.9-1.69,7.81-1.69ZM1092.31,21.14c-1,0-1.86.37-2.59,1.11-.73.74-1.36,1.73-1.88,2.97-.52,1.24-.94,2.62-1.27,4.15-.33,1.52-.56,3.09-.7,4.7-.14,1.61-.2,3.13-.18,4.57.02,2.77.21,4.9.56,6.41s.83,2.55,1.42,3.13c.59.58,1.24.87,1.95.87,1,0,1.86-.37,2.59-1.1s1.36-1.72,1.88-2.96.93-2.63,1.25-4.16c.32-1.53.54-3.11.69-4.73.14-1.62.2-3.17.18-4.65-.02-2.79-.21-4.92-.56-6.41-.36-1.48-.82-2.51-1.4-3.07-.58-.56-1.23-.84-1.94-.84Z"/>
      <path class="st1" d="M1129.37,17.29c2.79,0,5.15.52,7.09,1.56,1.94,1.04,3.43,2.57,4.47,4.61,1.04,2.03,1.57,4.53,1.59,7.5.02,2.99-.38,5.81-1.21,8.45-.82,2.64-2.04,4.97-3.64,6.98-1.61,2.01-3.57,3.59-5.9,4.74s-4.98,1.72-7.95,1.72c-2.7,0-5.02-.53-6.94-1.59-1.92-1.06-3.39-2.61-4.41-4.67s-1.55-4.56-1.59-7.53c-.02-3.01.38-5.83,1.21-8.46.82-2.63,2.03-4.95,3.63-6.94,1.6-1.99,3.54-3.55,5.84-4.68,2.3-1.13,4.9-1.69,7.81-1.69ZM1128.06,21.14c-1,0-1.86.37-2.59,1.11-.73.74-1.36,1.73-1.88,2.97-.52,1.24-.94,2.62-1.27,4.15-.33,1.52-.56,3.09-.7,4.7-.14,1.61-.2,3.13-.18,4.57.02,2.77.21,4.9.56,6.41s.83,2.55,1.42,3.13c.59.58,1.24.87,1.95.87,1,0,1.86-.37,2.59-1.1s1.36-1.72,1.88-2.96.93-2.63,1.25-4.16c.32-1.53.54-3.11.69-4.73.14-1.62.2-3.17.18-4.65-.02-2.79-.21-4.92-.56-6.41-.36-1.48-.82-2.51-1.4-3.07-.58-.56-1.23-.84-1.94-.84Z"/>
      <path class="st1" d="M1145.68,52l6.31-44.83-4.33-1.28.52-2.44,12.08-1.25,1.65.85-6.65,48.95h-9.58ZM1169.69,52.55c-1.14,0-2.09-.15-2.87-.44-.77-.29-1.39-.71-1.86-1.25s-.83-1.15-1.1-1.85l-5.79-15.19c1.02-.55,2-1.11,2.94-1.68s1.93-1.31,2.94-2.21c1.02-.91,2.11-2.12,3.29-3.65.55-.73.95-1.5,1.21-2.32.25-.81.38-1.69.38-2.62,0-1.06.26-1.88.79-2.46.53-.58,1.17-.98,1.92-1.21.75-.22,1.45-.34,2.1-.34,1.26,0,2.22.38,2.87,1.14.65.76.98,1.65.98,2.67.02,1.08-.15,2.01-.5,2.79-.36.78-.75,1.45-1.17,2-.69.87-1.5,1.7-2.44,2.47-.94.77-1.93,1.48-2.97,2.12-1.05.64-2.09,1.21-3.14,1.71-1.05.5-2.05.93-3,1.3l1.19-3.33,6.74,13.66c.49.92,1.02,1.6,1.59,2.06.57.46,1.1.69,1.59.69.37,0,.89-.11,1.57-.33s1.31-.56,1.88-1.01l.98,2.07c-.37.49-1.03,1.14-2,1.97s-2.14,1.57-3.52,2.23c-1.38.66-2.91.99-4.58.99Z"/>
      <path class="st1" d="M1206.99,45.54c-.53.87-1.4,1.87-2.61,2.99-1.21,1.12-2.74,2.09-4.58,2.93-1.84.83-4,1.25-6.48,1.25-2.34,0-4.32-.39-5.93-1.16-1.62-.77-2.92-1.82-3.92-3.13s-1.72-2.78-2.17-4.41c-.45-1.63-.68-3.28-.7-4.97-.02-3.17.44-6.09,1.39-8.75.95-2.66,2.27-4.98,3.98-6.94,1.71-1.96,3.72-3.49,6.02-4.58,2.31-1.09,4.8-1.63,7.49-1.63,2.2,0,3.99.33,5.37.99s2.41,1.56,3.08,2.7c.67,1.14,1.03,2.41,1.07,3.81.06,1.97-.29,3.7-1.05,5.18-.76,1.48-1.79,2.76-3.1,3.81-1.3,1.06-2.76,1.93-4.36,2.61-1.61.68-3.24,1.18-4.91,1.51-1.67.33-3.23.51-4.7.55,0,1.52.12,2.86.37,4,.24,1.14.6,2.09,1.08,2.85.48.76,1.06,1.34,1.74,1.72.68.39,1.45.58,2.3.58,1.54,0,2.87-.26,3.98-.79,1.11-.53,2.05-1.18,2.82-1.95s1.42-1.5,1.95-2.2l1.86,3.02ZM1197.35,21.32c-1.16,0-2.13.43-2.93,1.28-.79.85-1.44,1.96-1.94,3.33s-.87,2.82-1.13,4.38c-.25,1.56-.41,3.04-.47,4.44.69-.04,1.45-.2,2.27-.47.82-.27,1.64-.67,2.44-1.17.8-.51,1.54-1.13,2.2-1.88.66-.74,1.18-1.6,1.56-2.56.38-.97.53-2.04.47-3.22-.06-1.36-.29-2.39-.7-3.08-.41-.69-1-1.04-1.77-1.04Z"/>
      <path class="st1" d="M1240.48,45.23c-.1.73-.08,1.3.08,1.71.15.41.47.61.96.61.29,0,.63-.09,1.04-.26.41-.17.98-.53,1.71-1.08l.85,2.1c-.24.29-.71.77-1.4,1.46s-1.61,1.34-2.76,1.94-2.53.9-4.13.9-2.87-.38-3.66-1.14c-.79-.76-1.28-1.85-1.46-3.28l-.06-.58c-.55.77-1.28,1.54-2.18,2.32-.91.77-2,1.41-3.28,1.92-1.28.51-2.76.76-4.42.76-2.46,0-4.44-.59-5.95-1.78-1.5-1.19-2.59-2.74-3.26-4.65s-1.01-3.96-1.01-6.13c0-2.3.26-4.55.78-6.77.52-2.22,1.31-4.28,2.36-6.19,1.06-1.91,2.38-3.6,3.98-5.06,1.6-1.46,3.48-2.61,5.66-3.43,2.18-.82,4.64-1.24,7.38-1.24.47,0,.97.03,1.51.09.54.06,1.07.14,1.6.24l1.4-10.55-4.61-1.28.55-2.41,12.69-1.28,1.65.85-6.01,42.21ZM1234.13,21.99c-.47-.16-.97-.29-1.49-.38-.53-.09-1.09-.14-1.68-.14-1.46,0-2.73.37-3.8,1.11-1.07.74-1.96,1.74-2.68,3s-1.3,2.68-1.74,4.25c-.44,1.58-.75,3.21-.93,4.91-.18,1.7-.27,3.34-.27,4.93s.17,2.88.52,4.06c.35,1.18.84,2.1,1.5,2.76.65.66,1.42.99,2.32.99.69,0,1.34-.15,1.95-.44s1.17-.69,1.69-1.17c.52-.49.96-1,1.33-1.52l3.29-22.36Z"/>
    </g>
    <g>
      <path class="st2" d="M851.7,45.29c-.1.81-.05,1.39.17,1.74.21.35.54.52.99.52.29,0,.64-.09,1.07-.27.43-.18.99-.54,1.68-1.07l.85,2.1c-.22.35-.72.86-1.5,1.56s-1.76,1.32-2.96,1.89c-1.2.57-2.57.85-4.12.85-1.28,0-2.36-.3-3.23-.9s-1.37-1.49-1.49-2.67l.03-.37c-.63.67-1.39,1.31-2.29,1.91s-1.91,1.09-3.03,1.46c-1.13.38-2.38.56-3.77.56-2.46,0-4.47-.57-6.02-1.71-1.55-1.14-2.69-2.65-3.42-4.54s-1.08-3.94-1.08-6.16c0-2.34.29-4.62.88-6.85s1.45-4.31,2.59-6.24,2.54-3.63,4.19-5.09c1.66-1.46,3.55-2.61,5.69-3.43,2.14-.82,4.48-1.24,7.05-1.24,1.18,0,2.43.14,3.75.41,1.32.27,2.42.56,3.29.87l4.54-1.28-3.87,27.94ZM845.42,21.69c-.35-.08-.7-.14-1.05-.17-.36-.03-.71-.05-1.05-.05-1.4,0-2.63.37-3.69,1.11-1.06.74-1.96,1.74-2.71,3s-1.36,2.69-1.83,4.29c-.47,1.6-.81,3.25-1.02,4.96s-.32,3.38-.32,5,.18,2.95.55,4.1c.37,1.15.88,2.03,1.56,2.64.67.61,1.46.92,2.38.92.37,0,.72-.05,1.07-.14s.68-.22,1.01-.38.64-.36.95-.58c.3-.22.6-.47.88-.73l3.29-23.97Z"/>
      <path class="st2" d="M869.82,45.29c-.1.69-.07,1.24.11,1.65.17.41.5.61.99.61.3,0,.64-.08,1.01-.24.37-.16.95-.54,1.74-1.13l.79,2.1c-.22.3-.69.8-1.39,1.49-.7.69-1.68,1.34-2.94,1.94-1.26.6-2.84.9-4.73.9-.79,0-1.61-.13-2.46-.4-.84-.26-1.55-.69-2.12-1.28-.57-.59-.85-1.37-.85-2.35,0-.24.02-.51.05-.81.03-.29.07-.58.11-.85s.07-.48.09-.62l5.76-39.19-3.96-1.22.61-2.44,11.77-1.28,1.53.85-6.1,42.27Z"/>
      <path class="st2" d="M885.92,52.61l-2.41-11.13-3.6-17.14c-.14-.63-.32-1.07-.52-1.31-.2-.24-.46-.37-.76-.37-.37,0-.64.05-.82.14-.18.09-.41.2-.67.32l-.88-2.29c.18-.24.63-.65,1.36-1.21.72-.56,1.64-1.08,2.75-1.56,1.11-.48,2.31-.72,3.61-.72,1.79,0,3.12.35,4,1.05s1.41,1.71,1.62,3.04l2.17,17.63.7,6.28,2.62-8.36,5.49-18.85h9.39l2.75,21.99.58,5.73,1.65-2.9c.73-1.38,1.36-2.72,1.89-4.01.53-1.29.96-2.55,1.31-3.78.34-1.23.6-2.46.76-3.68s.24-2.45.24-3.69c0-.67-.08-1.36-.24-2.06s-.33-1.41-.49-2.13c-.16-.72-.24-1.43-.24-2.12,0-1.18.43-2.2,1.28-3.05s2.02-1.28,3.51-1.28c1.3,0,2.33.31,3.1.93s1.31,1.42,1.63,2.41.5,2.03.52,3.13c.04,1.42-.22,3.02-.79,4.79-.57,1.77-1.36,3.64-2.38,5.61-1.02,1.97-2.2,4-3.55,6.07-1.35,2.07-2.82,4.14-4.39,6.19-1.58,2.05-3.2,4.04-4.86,5.95l-6.71.3-2.38-20.34-.52-5.73-1.74,5.73-6.47,19.92-8.48.49Z"/>
      <path class="st2" d="M957.81,45.29c-.1.81-.05,1.39.17,1.74.21.35.54.52.99.52.29,0,.64-.09,1.07-.27.43-.18.99-.54,1.68-1.07l.85,2.1c-.22.35-.72.86-1.5,1.56s-1.76,1.32-2.96,1.89c-1.2.57-2.57.85-4.12.85-1.28,0-2.36-.3-3.23-.9s-1.37-1.49-1.49-2.67l.03-.37c-.63.67-1.39,1.31-2.29,1.91s-1.91,1.09-3.03,1.46c-1.13.38-2.38.56-3.77.56-2.46,0-4.47-.57-6.02-1.71-1.55-1.14-2.69-2.65-3.42-4.54s-1.08-3.94-1.08-6.16c0-2.34.29-4.62.88-6.85s1.45-4.31,2.59-6.24,2.54-3.63,4.19-5.09c1.66-1.46,3.55-2.61,5.69-3.43,2.14-.82,4.48-1.24,7.05-1.24,1.18,0,2.43.14,3.75.41,1.32.27,2.42.56,3.29.87l4.54-1.28-3.87,27.94ZM951.53,21.69c-.35-.08-.7-.14-1.05-.17-.36-.03-.71-.05-1.05-.05-1.4,0-2.63.37-3.69,1.11-1.06.74-1.96,1.74-2.71,3s-1.36,2.69-1.83,4.29c-.47,1.6-.81,3.25-1.02,4.96s-.32,3.38-.32,5,.18,2.95.55,4.1c.37,1.15.88,2.03,1.56,2.64.67.61,1.46.92,2.38.92.37,0,.72-.05,1.07-.14s.68-.22,1.01-.38.64-.36.95-.58c.3-.22.6-.47.88-.73l3.29-23.97Z"/>
      <path class="st2" d="M967.63,24.34c-.14-.63-.32-1.07-.52-1.31-.2-.24-.46-.37-.76-.37-.26,0-.52.04-.76.11-.24.07-.5.19-.76.35l-.88-2.29c.2-.24.67-.65,1.39-1.21.72-.56,1.64-1.08,2.75-1.56,1.11-.48,2.31-.72,3.61-.72,1.2,0,2.19.16,2.96.47s1.37.78,1.8,1.39c.43.61.71,1.35.85,2.23.3,1.97.61,3.93.93,5.89s.62,3.9.93,5.84c.3,1.94.61,3.88.92,5.83.3,1.94.61,3.89.92,5.84l.85,5.95,1.92-4.09c.71-1.48,1.36-2.96,1.94-4.44.58-1.47,1.08-2.92,1.49-4.35s.74-2.81.98-4.16c.23-1.35.35-2.65.35-3.89,0-1.38-.13-2.47-.4-3.25-.26-.78-.53-1.53-.81-2.26-.27-.72-.41-1.68-.41-2.88s.39-2.13,1.17-2.93c.78-.79,1.95-1.19,3.49-1.19,1.2,0,2.2.31,2.99.92.79.61,1.39,1.39,1.78,2.33.4.95.59,1.91.59,2.88,0,2.13-.2,4.1-.61,5.89-.41,1.79-.97,3.54-1.69,5.25s-1.55,3.53-2.49,5.46c-.47,1.04-1.06,2.22-1.77,3.55s-1.48,2.72-2.32,4.16c-.83,1.44-1.67,2.86-2.5,4.25s-1.62,2.68-2.35,3.87c-.73,1.19-1.35,2.19-1.86,3-1.38,2.26-2.76,4-4.13,5.23-1.37,1.23-2.78,2.08-4.22,2.56-1.44.48-3,.72-4.67.72-1.2,0-2.44-.15-3.72-.44-1.28-.3-2.1-.59-2.47-.9l2.29-5.98c.45.45,1.23.85,2.35,1.22,1.12.37,2.17.55,3.17.55,1.26,0,2.43-.26,3.52-.79,1.09-.53,2.16-1.36,3.22-2.5,1.06-1.14,2.16-2.62,3.29-4.45h-5.4l-6.95-29.8Z"/>
      <path class="st2" d="M1021.43,24.55h-.31c-.41-.55-1.11-1.18-2.1-1.89s-2.22-1.07-3.66-1.07c-.85,0-1.65.13-2.38.4-.73.26-1.32.66-1.77,1.17s-.67,1.18-.67,2,.19,1.54.58,2.23c.39.69.98,1.38,1.77,2.07s1.78,1.46,2.96,2.32c1.14.81,2.17,1.66,3.08,2.55s1.64,1.92,2.18,3.1c.54,1.18.81,2.6.81,4.27,0,1.85-.39,3.46-1.16,4.82-.77,1.36-1.83,2.5-3.16,3.4-1.33.9-2.85,1.58-4.54,2.03-1.7.45-3.48.67-5.35.67-1.28,0-2.58-.11-3.9-.34-1.32-.22-2.5-.49-3.52-.81-1.03-.31-1.73-.62-2.12-.93l1.46-5.92h.09c.41.41,1.02.88,1.84,1.42.82.54,1.76,1.01,2.81,1.42,1.05.41,2.11.61,3.19.61.73,0,1.46-.13,2.2-.4.73-.26,1.34-.68,1.83-1.25s.73-1.31.73-2.23c0-.81-.22-1.57-.67-2.27-.45-.7-1.07-1.4-1.88-2.1-.8-.7-1.76-1.43-2.88-2.18-.94-.65-1.85-1.42-2.75-2.32-.89-.89-1.63-1.97-2.21-3.23s-.87-2.77-.87-4.51c0-2.01.58-3.79,1.74-5.32,1.16-1.54,2.78-2.73,4.87-3.6,2.08-.86,4.51-1.3,7.27-1.3,1.1,0,2.18.06,3.25.18,1.07.12,2,.27,2.81.44.8.17,1.37.33,1.69.47l-1.25,6.1Z"/>
      <path class="st2" d="M1052.54,20.53c.65-.57,1.4-1.09,2.24-1.57.84-.48,1.78-.86,2.81-1.16,1.03-.29,2.14-.44,3.34-.44,2.3,0,4.2.51,5.72,1.53s2.65,2.49,3.4,4.41,1.13,4.25,1.13,7c0,2.48-.3,4.84-.9,7.08-.6,2.24-1.47,4.29-2.62,6.15-1.15,1.86-2.55,3.47-4.19,4.83-1.65,1.36-3.52,2.42-5.63,3.16-2.1.74-4.41,1.11-6.91,1.11-1.22,0-2.49-.14-3.81-.41-1.32-.27-2.45-.56-3.39-.87l-4.94,1.28,6.22-45.54-3.11-1.28.61-2.47,10.89-1.16,1.59.85-2.44,17.51ZM1048.94,48.16c.41.14.84.23,1.3.27.46.04.95.06,1.48.06,1.38,0,2.6-.34,3.64-1.02,1.05-.68,1.94-1.61,2.68-2.79.74-1.18,1.35-2.55,1.81-4.1.47-1.56.81-3.21,1.04-4.97.22-1.76.33-3.53.33-5.32,0-2.07-.36-3.88-1.07-5.43-.71-1.55-1.82-2.32-3.32-2.32-.67,0-1.31.13-1.91.38-.6.25-1.15.58-1.65.99-.5.41-.95.87-1.36,1.37l-2.99,22.88Z"/>
      <path class="st2" d="M1093.62,17.29c2.79,0,5.15.52,7.09,1.56,1.94,1.04,3.43,2.57,4.47,4.61,1.04,2.03,1.57,4.53,1.59,7.5.02,2.99-.38,5.81-1.21,8.45-.82,2.64-2.04,4.97-3.64,6.98-1.61,2.01-3.57,3.59-5.9,4.74s-4.98,1.72-7.95,1.72c-2.7,0-5.02-.53-6.94-1.59-1.92-1.06-3.39-2.61-4.41-4.67s-1.55-4.56-1.59-7.53c-.02-3.01.38-5.83,1.21-8.46.82-2.63,2.03-4.95,3.63-6.94,1.6-1.99,3.54-3.55,5.84-4.68,2.3-1.13,4.9-1.69,7.81-1.69ZM1092.31,21.14c-1,0-1.86.37-2.59,1.11-.73.74-1.36,1.73-1.88,2.97-.52,1.24-.94,2.62-1.27,4.15-.33,1.52-.56,3.09-.7,4.7-.14,1.61-.2,3.13-.18,4.57.02,2.77.21,4.9.56,6.41s.83,2.55,1.42,3.13c.59.58,1.24.87,1.95.87,1,0,1.86-.37,2.59-1.1s1.36-1.72,1.88-2.96.93-2.63,1.25-4.16c.32-1.53.54-3.11.69-4.73.14-1.62.2-3.17.18-4.65-.02-2.79-.21-4.92-.56-6.41-.36-1.48-.82-2.51-1.4-3.07-.58-.56-1.23-.84-1.94-.84Z"/>
      <path class="st2" d="M1129.37,17.29c2.79,0,5.15.52,7.09,1.56,1.94,1.04,3.43,2.57,4.47,4.61,1.04,2.03,1.57,4.53,1.59,7.5.02,2.99-.38,5.81-1.21,8.45-.82,2.64-2.04,4.97-3.64,6.98-1.61,2.01-3.57,3.59-5.9,4.74s-4.98,1.72-7.95,1.72c-2.7,0-5.02-.53-6.94-1.59-1.92-1.06-3.39-2.61-4.41-4.67s-1.55-4.56-1.59-7.53c-.02-3.01.38-5.83,1.21-8.46.82-2.63,2.03-4.95,3.63-6.94,1.6-1.99,3.54-3.55,5.84-4.68,2.3-1.13,4.9-1.69,7.81-1.69ZM1128.06,21.14c-1,0-1.86.37-2.59,1.11-.73.74-1.36,1.73-1.88,2.97-.52,1.24-.94,2.62-1.27,4.15-.33,1.52-.56,3.09-.7,4.7-.14,1.61-.2,3.13-.18,4.57.02,2.77.21,4.9.56,6.41s.83,2.55,1.42,3.13c.59.58,1.24.87,1.95.87,1,0,1.86-.37,2.59-1.1s1.36-1.72,1.88-2.96.93-2.63,1.25-4.16c.32-1.53.54-3.11.69-4.73.14-1.62.2-3.17.18-4.65-.02-2.79-.21-4.92-.56-6.41-.36-1.48-.82-2.51-1.4-3.07-.58-.56-1.23-.84-1.94-.84Z"/>
      <path class="st2" d="M1145.68,52l6.31-44.83-4.33-1.28.52-2.44,12.08-1.25,1.65.85-6.65,48.95h-9.58ZM1169.69,52.55c-1.14,0-2.09-.15-2.87-.44-.77-.29-1.39-.71-1.86-1.25s-.83-1.15-1.1-1.85l-5.79-15.19c1.02-.55,2-1.11,2.94-1.68s1.93-1.31,2.94-2.21c1.02-.91,2.11-2.12,3.29-3.65.55-.73.95-1.5,1.21-2.32.25-.81.38-1.69.38-2.62,0-1.06.26-1.88.79-2.46.53-.58,1.17-.98,1.92-1.21.75-.22,1.45-.34,2.1-.34,1.26,0,2.22.38,2.87,1.14.65.76.98,1.65.98,2.67.02,1.08-.15,2.01-.5,2.79-.36.78-.75,1.45-1.17,2-.69.87-1.5,1.7-2.44,2.47-.94.77-1.93,1.48-2.97,2.12-1.05.64-2.09,1.21-3.14,1.71-1.05.5-2.05.93-3,1.3l1.19-3.33,6.74,13.66c.49.92,1.02,1.6,1.59,2.06.57.46,1.1.69,1.59.69.37,0,.89-.11,1.57-.33s1.31-.56,1.88-1.01l.98,2.07c-.37.49-1.03,1.14-2,1.97s-2.14,1.57-3.52,2.23c-1.38.66-2.91.99-4.58.99Z"/>
      <path class="st2" d="M1206.99,45.54c-.53.87-1.4,1.87-2.61,2.99-1.21,1.12-2.74,2.09-4.58,2.93-1.84.83-4,1.25-6.48,1.25-2.34,0-4.32-.39-5.93-1.16-1.62-.77-2.92-1.82-3.92-3.13s-1.72-2.78-2.17-4.41c-.45-1.63-.68-3.28-.7-4.97-.02-3.17.44-6.09,1.39-8.75.95-2.66,2.27-4.98,3.98-6.94,1.71-1.96,3.72-3.49,6.02-4.58,2.31-1.09,4.8-1.63,7.49-1.63,2.2,0,3.99.33,5.37.99s2.41,1.56,3.08,2.7c.67,1.14,1.03,2.41,1.07,3.81.06,1.97-.29,3.7-1.05,5.18-.76,1.48-1.79,2.76-3.1,3.81-1.3,1.06-2.76,1.93-4.36,2.61-1.61.68-3.24,1.18-4.91,1.51-1.67.33-3.23.51-4.7.55,0,1.52.12,2.86.37,4,.24,1.14.6,2.09,1.08,2.85.48.76,1.06,1.34,1.74,1.72.68.39,1.45.58,2.3.58,1.54,0,2.87-.26,3.98-.79,1.11-.53,2.05-1.18,2.82-1.95s1.42-1.5,1.95-2.2l1.86,3.02ZM1197.35,21.32c-1.16,0-2.13.43-2.93,1.28-.79.85-1.44,1.96-1.94,3.33s-.87,2.82-1.13,4.38c-.25,1.56-.41,3.04-.47,4.44.69-.04,1.45-.2,2.27-.47.82-.27,1.64-.67,2.44-1.17.8-.51,1.54-1.13,2.2-1.88.66-.74,1.18-1.6,1.56-2.56.38-.97.53-2.04.47-3.22-.06-1.36-.29-2.39-.7-3.08-.41-.69-1-1.04-1.77-1.04Z"/>
      <path class="st2" d="M1240.48,45.23c-.1.73-.08,1.3.08,1.71.15.41.47.61.96.61.29,0,.63-.09,1.04-.26.41-.17.98-.53,1.71-1.08l.85,2.1c-.24.29-.71.77-1.4,1.46s-1.61,1.34-2.76,1.94-2.53.9-4.13.9-2.87-.38-3.66-1.14c-.79-.76-1.28-1.85-1.46-3.28l-.06-.58c-.55.77-1.28,1.54-2.18,2.32-.91.77-2,1.41-3.28,1.92-1.28.51-2.76.76-4.42.76-2.46,0-4.44-.59-5.95-1.78-1.5-1.19-2.59-2.74-3.26-4.65s-1.01-3.96-1.01-6.13c0-2.3.26-4.55.78-6.77.52-2.22,1.31-4.28,2.36-6.19,1.06-1.91,2.38-3.6,3.98-5.06,1.6-1.46,3.48-2.61,5.66-3.43,2.18-.82,4.64-1.24,7.38-1.24.47,0,.97.03,1.51.09.54.06,1.07.14,1.6.24l1.4-10.55-4.61-1.28.55-2.41,12.69-1.28,1.65.85-6.01,42.21ZM1234.13,21.99c-.47-.16-.97-.29-1.49-.38-.53-.09-1.09-.14-1.68-.14-1.46,0-2.73.37-3.8,1.11-1.07.74-1.96,1.74-2.68,3s-1.3,2.68-1.74,4.25c-.44,1.58-.75,3.21-.93,4.91-.18,1.7-.27,3.34-.27,4.93s.17,2.88.52,4.06c.35,1.18.84,2.1,1.5,2.76.65.66,1.42.99,2.32.99.69,0,1.34-.15,1.95-.44s1.17-.69,1.69-1.17c.52-.49.96-1,1.33-1.52l3.29-22.36Z"/>
    </g>
  </g>
</svg>