<?xml version="1.0" encoding="UTF-8"?>
<svg id="Layer_1" xmlns="http://www.w3.org/2000/svg" version="1.1" viewBox="0 0 1002.85 108.26">
  <!-- Generator: Adobe Illustrator 30.3.0, SVG Export Plug-In . SVG Version: 2.1.3 Build 182)  -->
  <defs>
    <style>
      .st0 {
        fill: #4a9e96;
      }

      .st1 {
        fill: #fff;
      }
    </style>
  </defs>
  <path class="st1" d="M41.33,108.26c-9.72,0-16.45-3.58-21.31-10.15v8.87H0V2.72h20.02v37.04c4.86-7.72,11.73-11.3,21.31-11.3,20.31,0,32.46,19.02,32.46,40.9,0,23.31-14.01,38.9-32.46,38.9ZM36.9,45.2c-10.01,0-16.88,8.87-16.88,22.88,0,14.73,6.72,23.45,16.88,23.45s16.88-9.01,16.88-23.02-7.01-23.31-16.88-23.31Z"/>
  <path class="st1" d="M122.12,108.26c-23.74,0-38.18-14.44-38.18-39.9s14.44-39.9,38.04-39.9,38.33,14.3,38.33,40.47c0,24.74-14.73,39.33-38.18,39.33ZM122.12,44.62c-10.87,0-18.16,9.01-18.16,23.74s7.29,23.74,18.16,23.74,18.16-9.01,18.16-23.45c0-15.16-7.15-24.03-18.16-24.03Z"/>
  <path class="st1" d="M209.49,108.26c-23.74,0-38.18-14.44-38.18-39.9s14.44-39.9,38.04-39.9,38.33,14.3,38.33,40.47c0,24.74-14.73,39.33-38.18,39.33ZM209.49,44.62c-10.87,0-18.16,9.01-18.16,23.74s7.29,23.74,18.16,23.74,18.16-9.01,18.16-23.45c0-15.16-7.15-24.03-18.16-24.03Z"/>
  <path class="st1" d="M308.59,106.98l-18.45-34.04-8.01,8.72v25.31h-20.02V2.72h20.02v57.06l25.31-30.03h22.74l-26.31,29.17,28.17,48.05h-23.45Z"/>
  <path class="st1" d="M405.98,73.66h-51.77c.57,15.02,6.58,19.31,16.02,19.31,7.29,0,13.58-2.15,15.3-7.72h19.73c-4.43,15.16-18.45,23.02-35.75,23.02-21.88,0-35.32-14.16-35.32-38.9s13.58-40.9,35.75-40.9,36.18,16.16,36.18,42.76l-.14,2.43ZM369.65,43.77c-8.87,0-13.87,5.86-15.16,16.59h30.75c-1-11.01-7.01-16.59-15.59-16.59Z"/>
  <path class="st1" d="M468.47,106.98v-8.87c-5,6.58-11.73,10.15-21.31,10.15-20.45,0-32.46-17.88-32.46-39.76,0-23.31,14.01-40.04,32.46-40.04,9.58,0,16.3,3.58,21.31,11.3V2.72h20.02v104.25h-20.02ZM451.59,45.2c-10.01,0-16.88,9.01-16.88,23.31s6.86,23.02,16.88,23.02,16.87-8.72,16.87-22.74c0-14.73-6.72-23.6-16.87-23.6Z"/>
  <path class="st0" d="M507.07,106.98v-20.88h21.45v20.88h-21.45Z"/>
  <path class="st0" d="M584.29,48.34c-11.73,0-17.59,5.86-17.59,17.59v41.04h-20.02V29.75h20.02v15.16c4.29-10.44,12.3-16.45,21.45-16.45.57,0,1.29,0,2.43.14v20.31c-2.72-.43-4.15-.57-6.29-.57Z"/>
  <path class="st0" d="M668.95,73.66h-51.77c.57,15.02,6.58,19.31,16.02,19.31,7.29,0,13.58-2.15,15.3-7.72h19.73c-4.43,15.16-18.45,23.02-35.75,23.02-21.88,0-35.32-14.16-35.32-38.9s13.58-40.9,35.75-40.9,36.18,16.16,36.18,42.76l-.14,2.43ZM632.63,43.77c-8.87,0-13.87,5.86-15.16,16.59h30.75c-1-11.01-7.01-16.59-15.59-16.59Z"/>
  <path class="st0" d="M731.58,106.98v-47.62c0-9.15-4.29-13.87-12.87-13.87-9.72,0-16.16,6.01-16.16,15.16v46.33h-20.02V29.75h20.02v11.15c5.72-8.58,12.73-12.44,23.17-12.44,16.45,0,25.88,9.72,25.88,26.74v51.77h-20.02Z"/>
  <path class="st0" d="M792.36,107.55c-13.16,0-19.59-5.01-19.59-17.16v-45.76h-9.87v-13.3h9.87V10.59h20.02v20.74h11.15v13.3h-11.15v40.33c0,6.86,1.29,8.44,6.58,8.44,1.43,0,2.57-.14,4.58-.43v14.01c-3.58.14-7.15.57-11.58.57Z"/>
  <path class="st0" d="M862.42,106.98c-1.86-2.29-2.29-5.72-2.29-9.72-7.01,7.29-14.87,11.01-23.45,11.01-12.87,0-23.45-7.15-23.45-22.17,0-14.01,7.44-20.59,22.74-23.31l8.01-1.43c10.01-1.72,16.02-.86,16.02-9.01,0-5.15-3.86-7.72-11.58-7.72-9.87,0-13.16,2.57-14.16,10.58h-19.31c1.29-17.88,12.16-26.74,33.04-26.74s31.6,8.01,31.6,23.74v42.9c0,4,1,6.15,4.58,9.44v2.43h-21.74ZM859.99,70.51c-2.29,1.14-3.15,1.43-8.44,2.43l-6.86,1.29c-8.29,1.57-11.44,3.72-11.44,9.58s4.15,8.29,10.87,8.29c10.15,0,15.87-6.58,15.87-18.16v-3.43Z"/>
  <path class="st0" d="M898.32,106.98V2.72h20.02v104.25h-20.02Z"/>
  <path class="st0" d="M969.1,108.26c-23.45,0-35.89-8.87-36.47-25.74h19.59c1.72,8.29,6.58,10.01,15.73,10.01s14.87-1.86,14.87-6.58c0-2.14-1.72-3.72-6.72-5.29l-23.88-7.44c-14.3-4.43-16.88-9.58-16.88-19.02,0-15.87,12.16-25.74,31.75-25.74,20.74,0,33.32,9.87,33.61,26.17h-19.31c-.14-7.01-4.86-10.44-14.44-10.44-7.01,0-11.58,2.86-11.58,7.15,0,3.15,1.43,4.43,7.01,6.01l25.31,7.29c10.15,3,15.16,9.58,15.16,18.45v1c0,15.59-12.01,24.17-33.75,24.17Z"/>
</svg>